<svg id="Layer_1" xmlns="http://www.w3.org/2000/svg" viewBox="98 223.9 792 394"><style>.st0{fill:#fff}</style><path class="st0" d="M159 357.8h4.4c4.1 0 7-1.3 8.8-3.9l26.9-39c1.5-2.1 3.2-3.6 5-4.3 1.9-.8 4.2-1.2 6.9-1.2h24.1l-35.4 48.3c-1.3 1.7-2.6 3.2-3.9 4.3-1.4 1.1-2.8 2.1-4.2 2.9 2.1.8 4 1.8 5.7 3.2s3.3 3.1 4.7 5.4l36.1 55.4h-24.7c-1.6 0-2.9-.1-4.1-.3-1.1-.2-2.1-.5-2.9-1-.8-.4-1.5-1-2.1-1.6-.6-.6-1.2-1.4-1.7-2.2l-27-41.5c-1-1.5-2.2-2.6-3.7-3.2s-3.5-.9-6.1-.9H159V429h-27.7V309.5H159v48.3zm118.7 9.7l-36.9-58h27.7c1.8 0 3.1.2 4 .7.8.5 1.6 1.2 2.3 2.3l23.8 40.2c.3-.7.6-1.4.9-2 .4-.7.8-1.3 1.2-2l20.6-35.8c1.4-2.3 3.2-3.4 5.6-3.4h26.5L316 366.2l38.3 62.6h-27.7c-1.8 0-3.3-.4-4.4-1.3-1.1-.9-2-1.9-2.7-3.1l-23.9-41.8c-.4 1.2-.9 2.2-1.5 3.1l-22.3 38.7c-.7 1.1-1.5 2.2-2.6 3.1-1.1.9-2.5 1.3-4.1 1.3h-25.9l38.5-61.3zm114.9 39.2h44.2v22.1h-71.9V309.5h27.7v97.2zm107 .3c3.7 0 7-.6 10-1.8 2.9-1.2 5.4-3 7.4-5.3s3.6-5.1 4.6-8.4c1.1-3.3 1.6-7.1 1.6-11.3v-70.7h27.7v70.7c0 7.3-1.2 14-3.6 20.2-2.4 6.1-5.8 11.4-10.2 15.8-4.4 4.4-9.8 7.9-16.1 10.3-6.3 2.5-13.5 3.7-21.4 3.7-8 0-15.1-1.2-21.5-3.7-6.3-2.5-11.7-5.9-16.1-10.3s-7.8-9.7-10.2-15.8c-2.3-6.1-3.5-12.8-3.5-20.2v-70.7H476v70.6c0 4.2.5 8 1.6 11.3 1.1 3.3 2.6 6.1 4.6 8.4s4.5 4.1 7.4 5.3c3 1.2 6.3 1.9 10 1.9zM158.7 544.2c-4.6 0-8.8-.6-12.6-1.8-3.8-1.2-7.1-3-9.8-5.2-2.7-2.3-4.8-5-6.3-8.2s-2.2-6.8-2.2-10.9c0-5.9 1.5-10.7 4.6-14.6 3.1-3.8 7.5-6.5 13.2-8.2-4.8-1.8-8.5-4.5-10.9-8-2.5-3.6-3.7-7.8-3.7-12.8 0-3.4.7-6.5 2-9.5s3.2-5.5 5.6-7.7c2.4-2.2 5.3-3.9 8.7-5.1 3.4-1.2 7.2-1.9 11.4-1.9 4.1 0 7.9.6 11.3 1.9 3.4 1.2 6.3 2.9 8.8 5.1 2.4 2.2 4.3 4.7 5.6 7.7 1.3 2.9 2 6.1 2 9.5 0 5-1.2 9.2-3.7 12.8s-6.1 6.2-10.9 8c5.7 1.6 10.1 4.3 13.2 8.2 3.1 3.8 4.6 8.7 4.6 14.6 0 4-.8 7.6-2.3 10.9-1.5 3.2-3.6 6-6.3 8.2-2.7 2.3-6 4-9.8 5.2-3.7 1.2-7.9 1.8-12.5 1.8zm0-9.1c3 0 5.7-.4 8-1.3 2.4-.8 4.4-2 6-3.5s2.9-3.3 3.8-5.4c.9-2.1 1.3-4.5 1.3-7 0-3.2-.5-5.9-1.6-8.1-1-2.2-2.5-4.1-4.2-5.5-1.8-1.4-3.8-2.4-6.1-3.1s-4.7-1-7.2-1-4.9.3-7.2 1-4.3 1.7-6.1 3.1-3.2 3.2-4.2 5.5c-1 2.2-1.6 4.9-1.6 8.1 0 2.6.4 4.9 1.3 7 .9 2.1 2.1 3.9 3.8 5.4 1.6 1.5 3.6 2.7 6 3.5 2.4.9 5.1 1.3 8 1.3zm0-44.1c3 0 5.5-.5 7.7-1.4 2.1-.9 3.8-2.1 5.2-3.6 1.3-1.5 2.3-3.3 2.9-5.2.6-2 .9-4 .9-6.1s-.3-4.1-1.1-6c-.7-1.9-1.8-3.5-3.1-4.9-1.4-1.4-3.1-2.5-5.2-3.3-2.1-.8-4.5-1.2-7.2-1.2s-5.1.4-7.2 1.2c-2.1.8-3.8 1.9-5.2 3.3-1.4 1.4-2.4 3.1-3.1 4.9-.7 1.9-1.1 3.9-1.1 6s.3 4.1.9 6.1 1.6 3.7 2.9 5.2 3 2.7 5.2 3.6c2 1 4.6 1.4 7.5 1.4zm74.4 53.2c-4.6 0-8.8-.6-12.6-1.8-3.8-1.2-7.1-3-9.8-5.2-2.7-2.3-4.8-5-6.3-8.2s-2.2-6.8-2.2-10.9c0-5.9 1.5-10.7 4.6-14.6 3.1-3.8 7.5-6.5 13.2-8.2-4.8-1.8-8.5-4.5-10.9-8-2.5-3.6-3.7-7.8-3.7-12.8 0-3.4.7-6.5 2-9.5s3.2-5.5 5.6-7.7c2.4-2.2 5.3-3.9 8.7-5.1 3.4-1.2 7.2-1.9 11.4-1.9 4.1 0 7.9.6 11.3 1.9 3.4 1.2 6.3 2.9 8.8 5.1 2.4 2.2 4.3 4.7 5.6 7.7 1.3 2.9 2 6.1 2 9.5 0 5-1.2 9.2-3.7 12.8s-6.1 6.2-10.9 8c5.7 1.6 10.1 4.3 13.2 8.2 3.1 3.8 4.6 8.7 4.6 14.6 0 4-.8 7.6-2.3 10.9-1.5 3.2-3.6 6-6.3 8.2-2.7 2.3-6 4-9.8 5.2s-8 1.8-12.5 1.8zm0-9.1c3 0 5.7-.4 8-1.3 2.4-.8 4.4-2 6-3.5s2.9-3.3 3.8-5.4c.9-2.1 1.3-4.5 1.3-7 0-3.2-.5-5.9-1.6-8.1-1-2.2-2.5-4.1-4.2-5.5-1.8-1.4-3.8-2.4-6.1-3.1s-4.7-1-7.2-1-4.9.3-7.2 1-4.3 1.7-6.1 3.1c-1.8 1.4-3.2 3.2-4.2 5.5-1 2.2-1.6 4.9-1.6 8.1 0 2.6.4 4.9 1.3 7 .9 2.1 2.1 3.9 3.8 5.4 1.6 1.5 3.6 2.7 6 3.5 2.3.9 5 1.3 8 1.3zm0-44.1c3 0 5.5-.5 7.7-1.4 2.1-.9 3.8-2.1 5.2-3.6 1.3-1.5 2.3-3.3 2.9-5.2.6-2 .9-4 .9-6.1s-.3-4.1-1.1-6c-.7-1.9-1.8-3.5-3.1-4.9-1.4-1.4-3.1-2.5-5.2-3.3-2.1-.8-4.5-1.2-7.2-1.2s-5.1.4-7.2 1.2c-2.1.8-3.8 1.9-5.2 3.3-1.4 1.4-2.4 3.1-3.1 4.9-.7 1.9-1.1 3.9-1.1 6s.3 4.1.9 6.1c.6 2 1.6 3.7 2.9 5.2s3 2.7 5.2 3.6c1.9 1 4.5 1.4 7.5 1.4zm42.8 45.1c0-1.1.2-2.2.6-3.1.4-1 1-1.8 1.7-2.6.7-.7 1.5-1.3 2.5-1.7 1-.4 2-.6 3.1-.6s2.2.2 3.1.6c1 .4 1.8 1 2.6 1.7.7.7 1.3 1.6 1.7 2.6.4 1 .6 2 .6 3.1 0 1.2-.2 2.2-.6 3.2-.4 1-1 1.8-1.7 2.5s-1.6 1.3-2.6 1.7-2 .6-3.1.6-2.2-.2-3.1-.6c-1-.4-1.8-1-2.5-1.7s-1.3-1.6-1.7-2.5c-.4-1-.6-2-.6-3.2zm56.7-30.6c-3.5 0-6.7-.6-9.8-1.7-3.1-1.2-5.8-2.9-8.2-5.1-2.3-2.2-4.2-5-5.6-8.3s-2.1-7-2.1-11.2c0-4 .7-7.8 2.2-11.3s3.6-6.6 6.3-9.2 5.9-4.7 9.6-6.1c3.7-1.4 7.8-2.2 12.2-2.2 4.4 0 8.4.7 12 2.2 3.6 1.5 6.7 3.5 9.2 6.1 2.6 2.6 4.5 5.7 5.9 9.4 1.4 3.6 2.1 7.6 2.1 12 0 2.6-.2 5.2-.7 7.5s-1.2 4.7-2.1 6.9c-.9 2.3-2.1 4.5-3.4 6.8-1.3 2.2-2.8 4.6-4.5 6.9l-22.4 32.3c-.6.8-1.3 1.5-2.4 2-1 .5-2.2.7-3.5.7H317l27.9-36.6c.9-1.2 1.8-2.4 2.6-3.5s1.6-2.2 2.3-3.3c-2.4 1.9-5 3.3-7.9 4.3-2.9.9-6 1.4-9.3 1.4zm22.9-26.8c0-2.9-.5-5.5-1.4-7.8-.9-2.3-2.2-4.3-3.8-5.9-1.6-1.6-3.6-2.9-5.8-3.7-2.2-.8-4.7-1.3-7.4-1.3-2.8 0-5.4.5-7.7 1.4-2.3.9-4.3 2.2-6 3.8-1.6 1.6-2.9 3.6-3.8 5.8-.9 2.2-1.3 4.7-1.3 7.4 0 2.9.4 5.5 1.3 7.8.8 2.3 2 4.2 3.6 5.8 1.6 1.6 3.5 2.8 5.7 3.6 2.2.8 4.7 1.2 7.5 1.2 3.1 0 5.8-.5 8.2-1.5s4.4-2.3 6-4 2.9-3.6 3.7-5.8c.8-2.2 1.2-4.5 1.2-6.8zm83.9-27.3v10.1h-44.1v32.1H433v10.1h-37.7v39.5h-12.5v-91.8h56.6zm62.7 61.8c.4 1.1.9 2.3 1.3 3.4.4-1.2.9-2.3 1.3-3.4.5-1.1 1-2.2 1.6-3.3l31.1-56.4c.6-1 1.1-1.6 1.7-1.8.6-.2 1.4-.3 2.6-.3h9.2v91.8H540v-67.5c0-.9 0-1.9.1-2.9 0-1 .1-2.1.2-3.1l-31.5 57.4c-1.1 1.9-2.6 2.9-4.5 2.9h-1.8c-1.9 0-3.4-1-4.5-2.9l-32.2-57.6.3 3.3c.1 1.1.1 2.1.1 3v67.5h-10.9v-91.8h9.2c1.1 0 2 .1 2.6.3.6.2 1.2.8 1.7 1.8l31.7 56.5c.7.9 1.2 2 1.6 3.1z"/><g id="XMLID_2_"><path id="XMLID_15_" class="st0" d="M733.5 250.9c.2 2.3-1.2 4.5 1.4 6.2-4.1 9.9-6.4 20.4-12.1 29.4-.2 16.5-14.2 37.2 4.5 49.4 3.3 5.8 2.1 15.6 9.7 17.7 13.4 5.1 27.4 8.8 41.1 13.2 11.9 3.9 21.2-14.8 30-1 .2 3.3.4 8-1.6 11.1-4.9 3.5-11.9 2.1-16.2 7-3.7.6-5.3 4.9-8 7.2-2.9 2.3-2.7 5.8-3.9 8.4.6 12.5 13.2 18.7 18.9 28.4 10.1 2.5 21.4 2.5 31.7 2.7l1 1-1.4 1.6c-9.3.4-20.4-6.8-28 1.4l-3.7.2c-.4 5.6 6.6 13.8-2.7 16.9-8.8 7.6-15.2-9.3-22.6 1.4-4.7-.4-6.8 5.1-11.3 5.1-7.4 3.7-3.9 13-10.9 16.9 7.2 2.9.4 8.8 4.7 13.6 7.2 8.2 14.6 15 22.8 21.2v2.7c-2.1.8-4.5-.8-6.4-2.5-4.7-6.6-9.3-12.8-15-17.9-3.7-2.9-5.1-9.3-10.9-9-3.7-2.9-7.8-4.5-11.9-6.8 0 1.9-2.1 1.4-3.5 1.6-2.3 4.1 4.7 7.4.4 10.5 4.5 2.7.4 8.8 4.1 12.5.4 1.4-.4 2.5-.8 3.7 0-7.2-4.7-12.1-7-18.1-4.5-4.7-7.6 2.5-12.1 2.5-9.7 6.2-9.9 17.7-14.8 26.5.8 4.5-2.3 7.6-2.7 11.7-2.1 7.4.4 18.9-10.3 21-4.3-3.1-3.1-9.5-5.3-14-2.9-3.3-9.5-6.2-5.8-11.9-1-2.1 1.9-4.3 1.9-6.8-.2-6.4 3.1-11.5-.6-17.5-2.9-3.9-8.4-.6-12.3-2.3-1.9 4.5-6.6 4.9-9.7 8.2-4.3.2-8.2-3.5-10.5-7 1-5.3-4.9-8.6-5.1-14 2.1-4.1-4.9-4.7-1.9-8.8-1-1.9-2.9-3.7-5.3-3.1-1.6 5.6-8.4 2.7-11.9 5.3 1-3.7 3.9-6.4 7.2-8.2 1.2-1.2 3.7 0 4.5-2.5.4-12.3-20.4-9.9-13.6-23.2 2.1-1.9 2.5-4.9 1.2-7.4-2.7-1.9-8.2-3.5-5.6-8.2 1.2-3.9-2.3-6.8-3.5-10.5-4.5-1.9-11.3 6.4-13-2.7-.6-4.5-5.6-2.1-8.4-2.9-.6 0-1.2.2-1.6-.4 6.2-6 13.6 3.9 19.9-1.4 1.6 0 2.9 1.4 4.7.8 2.7-4.5 5.1-9.7 5.3-14.4 2.3-3.7 5.8-7.6 4.7-11.7 1.9-6.6 9.3-3.9 11.1-9.9 4.9-1.9 6.8-7.8 12.3-9.5 2.9-1.6.6-5.3 3.5-7 1.2-3.7-3.5-6-.4-8.8-4.7-9-12.1-17.5-12.8-28-1.2-3.1-4.3-6-3.5-9.5 2.9 4.5 7.2 8.4 8.4 14 1.6 1.9 2.7-1.6 4.3-.2 3.3 3.9 2.9 9.9 8.4 12.3 2.5-2.7 7.6-4.1 10.9-3.1.8-4.3-1.6-8.6-3.1-12.5-2.1-7.6 1.2-17.5-3.9-23.6.2-1.2-.6-2.7.2-3.7 3.3 7 4.7 14.8 9.7 21.2-.6 2.3 1.9 2.7 2.9 4.1l-2.7.6c1.2 6.2 0 17.1 8.2 18.5 1.9.6 1.4-1.4 2.1-2.1 3.5 1.6 6.2 4.9 10.3 4.9 2.9-6 6.2-12.5 4.5-19.7l1.4-2.3c0-6.4-3.3-13.2-.2-18.9-2.5-4.5 4.9-7.4 6-10.7-1.6 5.3-3.9 10.5-5.1 16 2.5 5.3-2.1 13.2 3.3 17.7-2.5 2.1-3.5 6-1.2 8.6.6.8 1.9.2 2.7.4 12.8-9.9 6.2-26.9 11.7-39.5 1-10.7 2.7-21.2 5.1-31.3 1.6-5.6 5.6-10.9 11.1-13.2 3.1.2 5.8.2 7 2.4z"/><path id="XMLID_14_" class="st0" d="M656.6 291.2c-6.6-2.9-2.3-11.7-7.4-15.6l1-1c-.2 6.6 7.7 10.3 6.4 16.6z"/><path id="XMLID_13_" class="st0" d="M675.5 328.4c-2.5-1-2.3-4.1-2.5-6.6 1.7 1.3 1.7 4.4 2.5 6.6z"/><path id="XMLID_12_" class="st0" d="M815 338.5c.6 1.2-1 1.9-1.4 2.7-1.4.4-2.7-.4-3.7-1.4-1-2.3 1.6-2.1 2.5-3.3 1.1 0 1.7 1.4 2.6 2z"/><path id="XMLID_11_" class="st0" d="M643.3 353.3c.4 1.4-.6 2.3-1.4 3.3-.8 0-1.4-1-2.1-1.4-.5-1.9 2-4.1 3.5-1.9z"/><path id="XMLID_10_" class="st0" d="M640.4 362c-1 .8-1.6 2.5-3.1 2.7l-1.6-1.4c.4-1.9 3.2-3.4 4.7-1.3z"/><path id="XMLID_9_" class="st0" d="M616.1 388.7c-.2 2.7-1 6-3.9 6.4-1.9 1-3.1-1.4-3.7-2.5-.8-2.7 1.2-3.9 2.9-5.8 2-1 3.1 1.3 4.7 1.9z"/><path id="XMLID_8_" class="st0" d="M870.7 443c1 3.7-1.4 6-3.9 8.4-2.7 1.9-5.8 4.7-9.5 3.1-3.5-1.9-6.8-5.8-5.6-9.7 1.2-2.9 3.3-5.3 6.6-6.2 4.6.3 9.9-.1 12.4 4.4z"/><path id="XMLID_7_" class="st0" d="M595.5 502.4c-1 .4-2.5 1.9-3.7.6l-1-1c6.8-5.8 13.6-13.8 21.4-18.3-4.3 7-14.2 10.1-16.7 18.7z"/><path id="XMLID_6_" class="st0" d="M636.9 490.7c.8 2.5-1 3.9-2.5 5.3-3.3.8-5.6-2.1-7-4.5-1.2-2.5 1.6-4.9 3.5-6.4 2.7.7 6 2.1 6 5.6z"/><path id="XMLID_5_" class="st0" d="M839.6 484.5c1.4.6 1 2.1 1.2 3.1-1.6 2.3-4.5.4-6.4-.4-5.3.4-8.8-3.7-13.4-5.8.6-3.5 4.3 0 6.8-1.2 4.4 0 7.1 5.2 11.8 4.3z"/><path id="XMLID_4_" class="st0" d="M750.6 545.4c4.3 7.8 9.7 15.2 10.9 24.5 5.3 5.1 3.7 13.8 6 20.4-1.6 3.7-4.1-1.4-6.4-1.4-5.1-13.4-9.5-26.9-10.5-42.2-3.1-3.9-5.3-8.6-5.8-13 6.4 1.2 3.3 8.2 5.8 11.7z"/><path id="XMLID_3_" class="st0" d="M860.6 582.4c3.5 4.3 5.6 10.1 4.3 16.2-3.1 5.6-9.7 9.7-16 9-5.6-1.9-13.8-5.6-14.2-12.8.6-5.3 1.4-11.7 6.8-14.4 6-1.7 14.4-2.7 19.1 2z"/></g></svg>