<svg xmlns="http://www.w3.org/2000/svg" viewBox="-159 247.3 275.7 346.6"><path d="M-17.3 249.5c.2 2.2-1.2 4.4 1.4 6-4 9.5-6.2 19.6-11.7 28.4-.2 15.9-13.7 35.9 4.4 47.6 3.2 5.6 2 15.1 9.3 17.1 12.9 5 26.4 8.5 39.7 12.7 11.5 3.8 20.4-14.3 29-1 .2 3.2.4 7.7-1.6 10.7-4.8 3.4-11.5 2-15.7 6.7-3.6.6-5.2 4.8-7.7 6.9-2.8 2.2-2.6 5.6-3.8 8.1.6 12.1 12.7 18.1 18.3 27.4 9.7 2.4 20.6 2.4 30.6 2.6l1 1-1.4 1.6c-8.9.4-19.6-6.5-27 1.4l-3.6.2c-.4 5.4 6.4 13.3-2.6 16.3-8.5 7.3-14.7-8.9-21.8 1.4-4.6-.4-6.5 5-10.9 5-7.1 3.6-3.8 12.5-10.5 16.3 6.9 2.8.4 8.5 4.6 13.1 6.9 7.9 14.1 14.5 22 20.4v2.6c-2 .8-4.4-.8-6.2-2.4-4.6-6.4-8.9-12.3-14.5-17.3-3.6-2.8-5-8.9-10.5-8.7-3.6-2.8-7.5-4.4-11.5-6.5 0 1.8-2 1.4-3.4 1.6-2.2 4 4.6 7.1.4 10.1 4.4 2.6.4 8.5 4 12.1.4 1.4-.4 2.4-.8 3.6 0-6.9-4.6-11.7-6.7-17.5-4.4-4.6-7.3 2.4-11.7 2.4-9.3 6-9.5 17.1-14.3 25.6.8 4.4-2.2 7.3-2.6 11.3-2 7.1.4 18.3-9.9 20.2-4.2-3-3-9.1-5.2-13.5-2.8-3.2-9.1-6-5.6-11.5-1-2 1.8-4.2 1.8-6.5-.2-6.2 3-11.1-.6-16.9-2.8-3.8-8.1-.6-11.9-2.2-1.8 4.4-6.4 4.8-9.3 7.9-4.2.2-7.9-3.4-10.1-6.7 1-5.2-4.8-8.3-5-13.5 2-4-4.8-4.6-1.8-8.5-1-1.8-2.8-3.6-5.2-3-1.6 5.4-8.1 2.6-11.5 5.2 1-3.6 3.8-6.2 6.9-7.9 1.2-1.2 3.6 0 4.4-2.4.4-11.9-19.6-9.5-13.1-22.4 2-1.8 2.4-4.8 1.2-7.1-2.6-1.8-7.9-3.4-5.4-7.9 1.2-3.8-2.2-6.5-3.4-10.1-4.4-1.8-10.9 6.2-12.5-2.6-.6-4.4-5.4-2-8.1-2.8-.6 0-1.2.2-1.6-.4 6-5.8 13.1 3.8 19.3-1.4 1.6 0 2.8 1.4 4.6.8 2.6-4.4 5-9.3 5.2-13.9 2.2-3.6 5.6-7.3 4.6-11.3 1.8-6.4 8.9-3.8 10.7-9.5 4.8-1.8 6.5-7.5 11.9-9.1 2.8-1.6.6-5.2 3.4-6.7 1.2-3.6-3.4-5.8-.4-8.5-4.6-8.7-11.7-16.9-12.3-27-1.2-3-4.2-5.8-3.4-9.1 2.8 4.4 6.9 8.1 8.1 13.5 1.6 1.8 2.6-1.6 4.2-.2 3.2 3.8 2.8 9.5 8.1 11.9 2.4-2.6 7.3-4 10.5-3 .8-4.2-1.6-8.3-3-12.1-2-7.3 1.2-16.9-3.8-22.8.2-1.2-.6-2.6.2-3.6 3.2 6.7 4.6 14.3 9.3 20.4-.6 2.2 1.8 2.6 2.8 4l-2.6.6c1.2 6 0 16.5 7.9 17.9 1.8.6 1.4-1.4 2-2 3.4 1.6 6 4.8 9.9 4.8 2.8-5.8 6-12.1 4.4-19.1l1.4-2.2c0-6.2-3.2-12.7-.2-18.3-2.4-4.4 4.8-7.1 5.8-10.3-1.6 5.2-3.8 10.1-5 15.5 2.4 5.2-2 12.7 3.2 17.1-2.4 2-3.4 5.8-1.2 8.3.6.8 1.8.2 2.6.4 12.3-9.5 6-26 11.3-38.1 1-10.3 2.6-20.4 5-30.2 1.6-5.4 5.4-10.5 10.7-12.7 2.7-.5 5.3-.5 6.5 1.7zm-74.2 38.9c-6.4-2.8-2.2-11.3-7.1-15.1l1-1c-.3 6.4 7.3 10 6.1 16.1z"/><path d="M-73.3 324.3c-2.4-1-2.2-4-2.4-6.4 1.6 1.3 1.6 4.2 2.4 6.4zm134.6 9.8c.6 1.2-1 1.8-1.4 2.6-1.4.4-2.6-.4-3.6-1.4-1-2.2 1.6-2 2.4-3.2 1.2 0 1.8 1.4 2.6 2zm-165.7 14.2c.4 1.4-.6 2.2-1.4 3.2-.8 0-1.4-1-2-1.4-.4-1.8 2-3.9 3.4-1.8zm-2.8 8.4c-1 .8-1.6 2.4-3 2.6l-1.6-1.4c.4-1.8 3.2-3.2 4.6-1.2zm-23.4 25.8c-.2 2.6-1 5.8-3.8 6.2-1.8 1-3-1.4-3.6-2.4-.8-2.6 1.2-3.8 2.8-5.6 2-1 3 1.2 4.6 1.8zm245.7 52.4c1 3.6-1.4 5.8-3.8 8.1-2.6 1.8-5.6 4.6-9.1 3-3.4-1.8-6.5-5.6-5.4-9.3 1.2-2.8 3.2-5.2 6.4-6 4.3.2 9.5-.2 11.9 4.2zm-265.6 57.3c-1 .4-2.4 1.8-3.6.6l-1-1c6.5-5.6 13.1-13.3 20.6-17.7-4.1 6.8-13.6 9.8-16 18.1zm39.9-11.3c.8 2.4-1 3.8-2.4 5.2-3.2.8-5.4-2-6.7-4.4-1.2-2.4 1.6-4.8 3.4-6.2 2.5.6 5.7 2 5.7 5.4zM85.1 475c1.4.6 1 2 1.2 3-1.6 2.2-4.4.4-6.2-.4-5.2.4-8.5-3.6-12.9-5.6.6-3.4 4.2 0 6.5-1.2 4.3 0 6.8 4.9 11.4 4.2zM-.8 533.7c4.2 7.5 9.3 14.7 10.5 23.6 5.2 5 3.6 13.3 5.8 19.6-1.6 3.6-4-1.4-6.2-1.4-5-12.9-9.1-26-10.1-40.7-3-3.8-5.2-8.3-5.6-12.5 6.2 1.3 3.2 8 5.6 11.4zm106.1 35.7c3.4 4.2 5.4 9.7 4.2 15.7-3 5.4-9.3 9.3-15.5 8.7-5.4-1.8-13.3-5.4-13.7-12.3.6-5.2 1.4-11.3 6.5-13.9 5.8-1.8 14-2.7 18.5 1.8z"/></svg>