<?xml version="1.0" encoding="UTF-8"?>
<svg id="Layer_1" data-name="Layer 1" xmlns="http://www.w3.org/2000/svg" viewBox="0 0 500 500">
  <defs>
    <style>
      .cls-1 {
        fill: #010101;
      }

      .cls-1, .cls-2 {
        stroke-width: 0px;
      }

      .cls-3 {
        opacity: .6;
      }

      .cls-2 {
        fill: #e6e7e8;
      }
    </style>
  </defs>
  <rect class="cls-2" y="0" width="500" height="500"/>
  <g class="cls-3">
    <path class="cls-1" d="M350,327.78v-155.56c0-12.22-10-22.22-22.22-22.22h-155.56c-12.22,0-22.22,10-22.22,22.22v155.56c0,12.22,10,22.22,22.22,22.22h155.56c12.22,0,22.22-10,22.22-22.22M215.56,272l23.33,28.11,34.44-44.33c2.22-2.89,6.67-2.89,8.89.11l39,52c1.84,2.45,1.34,5.94-1.11,7.78-.96.72-2.13,1.11-3.33,1.11h-133.22c-4.67,0-7.22-5.33-4.33-9l27.67-35.56c2.11-2.89,6.33-3,8.67-.22"/>
  </g>
</svg>