<?xml version="1.0" encoding="utf-8"?>
<!-- Generator: Adobe Illustrator 23.0.6, SVG Export Plug-In . SVG Version: 6.00 Build 0)  -->
<svg version="1.1" id="Layer_1" xmlns="http://www.w3.org/2000/svg" xmlns:xlink="http://www.w3.org/1999/xlink" x="0px" y="0px"
	 viewBox="0 0 19 8.4" style="enable-background:new 0 0 19 8.4;" xml:space="preserve">
<style type="text/css">
	.st0{fill:#333333;}
</style>
<title>AFoV</title>
<path class="st0" d="M0.7,3.5h0.2l0.7-2h0.5l0.7,2H3v0.3H2.2V3.5h0.2L2.2,3.2H1.5L1.4,3.5h0.2v0.3H0.7V3.5z M1.6,2.8h0.5L1.9,2l0,0
	L1.6,2.8z"/>
<path class="st0" d="M4.1,3.5h0.2V1.8l-0.2,0V1.5H6v0.6H5.6V1.8H4.8v0.6h0.8v0.4H4.8v0.7h0.2v0.3h-1L4.1,3.5L4.1,3.5z"/>
<path class="st0" d="M6.2,1.8V1.5h1v0.3L7,1.8v1.7h0.2v0.3h-1V3.5h0.2V1.8L6.2,1.8z"/>
<path class="st0" d="M9.2,2.2H8.8L8.8,1.9c-0.1,0-0.1-0.1-0.2-0.1c-0.1,0-0.2,0-0.2,0c-0.1,0-0.2,0-0.3,0.1C8,2,7.9,2,7.9,2.1
	c0,0.1,0,0.2,0.1,0.2c0.1,0.1,0.2,0.1,0.4,0.2c0.2,0,0.4,0.1,0.6,0.2C9.1,2.9,9.2,3,9.2,3.2c0,0.2-0.1,0.4-0.2,0.5
	C8.8,3.8,8.6,3.9,8.4,3.9c-0.2,0-0.3,0-0.5-0.1C7.7,3.7,7.6,3.6,7.5,3.5V3h0.4v0.3c0.1,0,0.1,0.1,0.2,0.1c0.1,0,0.2,0,0.3,0
	c0.1,0,0.2,0,0.3-0.1c0.1,0,0.1-0.1,0.1-0.2c0-0.1,0-0.1-0.1-0.1C8.6,2.9,8.4,2.9,8.3,2.8C8.1,2.8,7.9,2.7,7.7,2.6
	C7.5,2.4,7.5,2.3,7.5,2.1c0-0.2,0.1-0.4,0.2-0.5c0.2-0.1,0.4-0.2,0.6-0.2c0.2,0,0.3,0,0.5,0.1C9,1.6,9.1,1.7,9.2,1.7V2.2L9.2,2.2z"
	/>
<path class="st0" d="M11.5,1.5v0.6h-0.4V1.8h-0.4v1.6H11v0.3h-1V3.5h0.2V1.8H9.8v0.3H9.4V1.5H11.5z"/>
<path class="st0" d="M11.8,3.5H12V1.8l-0.2,0V1.5h1.9v0.6h-0.4V1.8h-0.8v0.6h0.8v0.4h-0.8v0.7h0.3v0.3h-1L11.8,3.5z"/>
<path class="st0" d="M14.9,1.5v0.3l-0.2,0V3c0,0.1,0,0.3,0.1,0.3c0.1,0.1,0.2,0.1,0.3,0.1c0.1,0,0.2,0,0.4-0.1
	c0.1-0.1,0.1-0.2,0.1-0.3V1.8l-0.2,0V1.5h1v0.3l-0.3,0V3c0,0.2-0.1,0.5-0.3,0.6c-0.4,0.3-0.9,0.3-1.4,0c-0.2-0.2-0.3-0.4-0.2-0.6
	V1.8l-0.2,0V1.5H14.9L14.9,1.5z"/>
<path class="st0" d="M16.5,3.8V3.5h0.2V1.8l-0.2,0V1.5h1v0.3l-0.3,0v1.7h0.7V3.2h0.4v0.7L16.5,3.8z"/>
<path class="st0" d="M0.8,5.4C0.8,5.2,0.9,5,1,4.8c0.2-0.2,0.4-0.3,0.6-0.2c0.2,0,0.5,0.1,0.6,0.2C2.4,5,2.4,5.2,2.4,5.4l0,0
	c0,0.2-0.1,0.5-0.2,0.6C2.1,6.2,1.8,6.3,1.6,6.3C1.4,6.3,1.2,6.3,1,6.1C0.8,5.9,0.8,5.7,0.8,5.4L0.8,5.4L0.8,5.4z M1.2,5.4
	c0,0.1,0,0.3,0.1,0.4C1.4,5.9,1.5,6,1.6,6c0.1,0,0.2,0,0.3-0.1c0.1-0.1,0.1-0.3,0.1-0.4l0,0c0-0.1,0-0.3-0.1-0.4
	C1.8,5,1.7,4.9,1.6,5c-0.1,0-0.2,0-0.3,0.1C1.3,5.2,1.2,5.3,1.2,5.4L1.2,5.4z"/>
<path class="st0" d="M2.9,6.6h0.2V4.9H2.9V4.5h1.9v0.7H4.4V4.9H3.7v0.6h0.8v0.4H3.6v0.6l0.3,0.1v0.3h-1L2.9,6.6L2.9,6.6z"/>
<path class="st0" d="M7.4,4.8H7.2l0.4,1.4v0.1l0,0V6.2l0.5-1.4H7.9V4.5h0.9v0.3H8.6l-0.7,2H7.4l-0.7-2H6.5V4.5h0.9V4.8z"/>
<path class="st0" d="M9.3,4.8V4.5h1v0.3h-0.2v1.7h0.2v0.3h-1V6.6h0.2V4.9L9.3,4.8z"/>
<path class="st0" d="M13.3,4.5v0.3H13v2h-0.5l-1-1.6l0,0v1.3h0.3v0.3h-1V6.6h0.2V4.9h-0.2V4.5h0.7l1,1.6l0,0V4.9h-0.2V4.6L13.3,4.5
	L13.3,4.5z"/>
<path class="st0" d="M14.7,4.8h-0.2l0.4,0.8l0,0l0.4-0.8h-0.2V4.5H16v0.3h-0.2L15.2,6v0.5h0.2v0.3h-1V6.6h0.3V6L14,4.9h-0.2V4.5h0.9
	L14.7,4.8z"/>
<path class="st0" d="M16.5,6.9V6.6h0.2V4.9h-0.2V4.5h1v0.3h-0.2v1.7h0.7V6.2h0.4v0.7L16.5,6.9L16.5,6.9z"/>
<rect x="1" y="6.6" class="st0" width="1.2" height="0.3"/>
<rect class="st0" width="19" height="0.7"/>
<rect y="7.6" class="st0" width="19" height="0.7"/>
</svg>
